<svg aria-hidden="true" style="width:0;height:0;position:absolute;overflow:hidden" xmlns="http://www.w3.org/2000/svg"><defs><symbol id="icon-cheef-head" viewBox="0 0 37 32"><path fill="#9bb537" style="fill:var(--color1,#9bb537)" d="M7.325 12.723h23.133v17.735H7.325V12.723z"/><path fill="#9bb537" style="fill:var(--color1,#9bb537)" d="M16.578 11.373a8.289 8.289 0 1 1-16.578 0 8.289 8.289 0 1 1 16.578 0z"/><path fill="#9bb537" style="fill:var(--color1,#9bb537)" d="M26.988 8.289a8.289 8.289 0 1 1-16.578 0 8.289 8.289 0 1 1 16.578 0z"/><path fill="#9bb537" style="fill:var(--color1,#9bb537)" d="M37.398 11.373a8.289 8.289 0 1 1-16.578 0 8.289 8.289 0 1 1 16.578 0z"/><path fill="#f8f8f8" style="fill:var(--color2,#f8f8f8)" d="M7.325 29.301h23.133v2.036c0 .366-.324.663-.723.663H8.048c-.399 0-.723-.297-.723-.663v-2.036zM14.265 10.36c0-.611.432-1.107.964-1.107s.964.495.964 1.107v5.112c0 .611-.432 1.107-.964 1.107s-.964-.495-.964-1.107V10.36zM17.349 10.36c0-.611.604-1.107 1.349-1.107s1.349.495 1.349 1.107v5.112c0 .611-.604 1.107-1.349 1.107s-1.349-.495-1.349-1.107V10.36zM21.205 10.36c0-.611.432-1.107.964-1.107s.964.495.964 1.107v5.112c0 .611-.432 1.107-.964 1.107s-.964-.495-.964-1.107V10.36z"/><path fill="#050505" style="fill:var(--color3,#050505)" d="M28.184 3.131c.289-.03.581-.045.878-.045A8.333 8.333 0 0 1 37 8.832c-.289.03-.581.045-.878.045a8.333 8.333 0 0 1-7.938-5.746z"/></symbol><symbol id="icon-close-modal" viewBox="0 0 32 32"><path stroke-linejoin="round" stroke-linecap="round" stroke-width="2.667" d="M24 8 8 24M8 8l16 16"/></symbol><symbol id="icon-close-input" viewBox="0 0 32 32"><path stroke-linejoin="round" stroke-linecap="round" stroke-width="3.556" d="M24 8 8 24M8 8l16 16"/></symbol><symbol id="icon-busket" viewBox="0 0 32 32"><path stroke-linejoin="round" stroke-linecap="round" stroke-width="2.667" d="M12 29.333a1.333 1.333 0 1 0 0-2.667 1.333 1.333 0 0 0 0 2.667zM26.667 29.333a1.333 1.333 0 1 0 0-2.667 1.333 1.333 0 0 0 0 2.667z"/><path stroke-linejoin="round" stroke-linecap="round" stroke-width="2.4" d="M1.333 1.333h5.333l3.573 17.853a2.671 2.671 0 0 0 2.666 2.147h12.96a2.667 2.667 0 0 0 2.666-2.147l2.133-11.187H7.997"/></symbol><symbol id="icon-search" viewBox="0 0 32 32"><path d="M30.565 28.436 25 22.916a13.5 13.5 0 1 0-2.086 2.086l5.52 5.52a1.483 1.483 0 0 0 1.065.443 1.504 1.504 0 0 0 1.065-.443 1.503 1.503 0 0 0 0-2.085zM14.5 25.001a10.494 10.494 0 0 1-9.7-6.482A10.5 10.5 0 1 1 14.501 25z"/></symbol><symbol id="icon-slider" viewBox="0 0 141 32"><path d="M16.216 26.72c-4.053 0-7.413-1.227-10.08-3.68-2.56-2.56-3.84-5.707-3.84-9.44s1.28-6.827 3.84-9.28C8.803 1.76 12.163.48 16.216.48c3.947 0 7.2 1.28 9.76 3.84 2.56 2.453 3.84 5.547 3.84 9.28s-1.28 6.88-3.84 9.44c-2.56 2.453-5.813 3.68-9.76 3.68zm108.725 0c-4.054 0-7.414-1.227-10.08-3.68-2.56-2.56-3.84-5.707-3.84-9.44s1.28-6.827 3.84-9.28c2.666-2.56 6.026-3.84 10.08-3.84 3.946 0 7.2 1.28 9.76 3.84 2.56 2.453 3.84 5.547 3.84 9.28s-1.28 6.88-3.84 9.44c-2.56 2.453-5.814 3.68-9.76 3.68zM70.579 26.72c-4.053 0-7.413-1.227-10.08-3.68-2.56-2.56-3.84-5.707-3.84-9.44s1.28-6.827 3.84-9.28C63.166 1.76 66.526.48 70.579.48c3.947 0 7.2 1.28 9.76 3.84 2.56 2.453 3.84 5.547 3.84 9.28s-1.28 6.88-3.84 9.44c-2.56 2.453-5.813 3.68-9.76 3.68z"/></symbol><symbol id="icon-burger" viewBox="0 0 32 32"><path stroke-linejoin="round" stroke-linecap="round" stroke-width="2" d="M28 13.333H4M28 8H4M28 18.667H4M28 24H4"/></symbol><symbol id="icon-basket" viewBox="0 0 32 32"><path stroke-linejoin="round" stroke-linecap="round" stroke-width="2.667" d="M12 29.333a1.333 1.333 0 1 0 0-2.667 1.333 1.333 0 0 0 0 2.667zM26.667 29.333a1.333 1.333 0 1 0 0-2.667 1.333 1.333 0 0 0 0 2.667z"/><path stroke-linejoin="round" stroke-linecap="round" stroke-width="2.4" d="M1.333 1.333h5.333l3.573 17.853a2.671 2.671 0 0 0 2.666 2.147h12.96a2.667 2.667 0 0 0 2.666-2.147l2.133-11.187H7.997"/></symbol><symbol id="icon-fi-rr-angle-small-right" viewBox="0 0 32 32"><path d="M17.867 16.947a1.334 1.334 0 0 0 0-1.894l-6.12-6.107a1.334 1.334 0 1 1 1.88-1.894l6.12 6.12a4.001 4.001 0 0 1 0 5.654l-6.12 6.12a1.337 1.337 0 0 1-2.172-.434 1.331 1.331 0 0 1 .292-1.46l6.12-6.107z"/></symbol><symbol id="icon-fi-rr-angle-small-left" viewBox="0 0 32 32"><path d="M14.133 16.947a1.334 1.334 0 0 1 0-1.894l6.12-6.107a1.334 1.334 0 1 0-1.88-1.894l-6.12 6.12a4.001 4.001 0 0 0 0 5.654l6.12 6.12a1.336 1.336 0 0 0 1.88-1.894l-6.12-6.107z"/></symbol><symbol id="icon-star" viewBox="0 0 34 32"><path d="M14.89 2.282c.737-2.268 3.945-2.268 4.682 0l2.08 6.402a2.463 2.463 0 0 0 2.341 1.701h6.731c2.384 0 3.376 3.051 1.447 4.453l-5.446 3.957a2.46 2.46 0 0 0-.894 2.752l2.08 6.402c.737 2.268-1.859 4.154-3.788 2.752l-5.446-3.957a2.461 2.461 0 0 0-2.894 0l-5.446 3.957c-1.929 1.402-4.525-.484-3.788-2.752l2.08-6.402a2.46 2.46 0 0 0-.894-2.752l-5.446-3.957c-1.929-1.402-.938-4.453 1.447-4.453h6.731a2.462 2.462 0 0 0 2.341-1.701l2.08-6.402z"/></symbol><symbol id="icon-youtube" viewBox="0 0 32 32"><path d="M31.681 9.6s-.313-2.206-1.275-3.175C29.187 5.15 27.825 5.144 27.2 5.069c-4.475-.325-11.194-.325-11.194-.325h-.012s-6.719 0-11.194.325c-.625.075-1.987.081-3.206 1.356C.631 7.394.325 9.6.325 9.6s-.319 2.588-.319 5.181v2.425c0 2.587.319 5.181.319 5.181s.313 2.206 1.269 3.175c1.219 1.275 2.819 1.231 3.531 1.369 2.563.244 10.881.319 10.881.319s6.725-.012 11.2-.331c.625-.075 1.988-.081 3.206-1.356.962-.969 1.275-3.175 1.275-3.175s.319-2.587.319-5.181v-2.425c-.006-2.588-.325-5.181-.325-5.181zM12.694 20.15v-8.994l8.644 4.513-8.644 4.481z"/></symbol><symbol id="icon-angle" viewBox="0 0 32 32"><path stroke-linejoin="round" stroke-linecap="round" stroke-width="2.909" d="M16.947 14.133a1.334 1.334 0 0 0-1.894 0l-6.107 6.12a1.334 1.334 0 1 1-1.894-1.88l6.12-6.12a4.001 4.001 0 0 1 5.654 0l6.12 6.12a1.337 1.337 0 0 1-.434 2.172 1.331 1.331 0 0 1-1.46-.292l-6.107-6.12z"/></symbol><symbol id="icon-reset-btn" viewBox="0 0 32 32"><path fill="none" stroke="#9bb537" style="stroke:var(--color1,#9bb537)" stroke-linejoin="round" stroke-linecap="round" stroke-width="3" d="M24 8 8 24M8 8l16 16"/></symbol><symbol id="icon-heart" viewBox="0 0 32 32"><path opacity=".5" stroke-linejoin="round" stroke-linecap="round" stroke-width="2.909" d="M15.992 6.848C13.326 3.731 8.881 2.893 5.541 5.747s-3.81 7.625-1.187 11c2.181 2.806 8.781 8.725 10.944 10.641.242.214.363.321.504.364a.668.668 0 0 0 .381 0c.141-.042.262-.149.504-.364 2.163-1.916 8.763-7.834 10.944-10.641 2.623-3.375 2.21-8.177-1.187-11.001s-7.785-2.015-10.451 1.101z"/></symbol><symbol id="icon-heart-checked" viewBox="0 0 32 32"><path d="M15.992 6.848C13.326 3.731 8.881 2.893 5.541 5.747s-3.81 7.625-1.187 11c2.181 2.806 8.781 8.725 10.944 10.641.242.214.363.321.504.364a.668.668 0 0 0 .381 0c.141-.042.262-.149.504-.364 2.163-1.916 8.763-7.834 10.944-10.641 2.623-3.375 2.21-8.177-1.187-11.001s-7.785-2.015-10.451 1.101z"/></symbol></defs></svg>